<svg width="659" height="167" viewBox="0 0 659 167" fill="none" xmlns="http://www.w3.org/2000/svg">
<path d="M101.672 0.812055C106.731 0.514055 110.879 1.72703 114.598 5.34703C120.575 11.165 119.067 23.123 119.078 31.09L119.083 60.944C119.083 89.212 119.107 117.574 119.029 145.851C119.051 151.367 118.187 156.489 113.662 160.264C106.165 166.518 96.927 164.359 91.037 157.352C69.383 168.407 48.75 169.94 27.478 156.57C-13.815 129.66 -6.16501 67.052 40.326 50.7901C57.317 44.8461 72.462 47.11 88.386 54.835C88.746 45.88 88.243 36.34 88.338 27.318C88.466 15.272 86.893 4.38605 101.672 0.812055Z" fill="#FE371F"/>
<path d="M56.2749 78.3131C72.0699 76.4131 86.3979 87.7221 88.2179 103.527C90.0379 119.332 78.6569 133.603 62.8429 135.344C47.1409 137.072 32.9939 125.789 31.1859 110.096C29.3789 94.4031 40.5909 80.1991 56.2749 78.3131Z" fill="white"/>
<path d="M289.012 0.796042C293.927 0.655042 297.282 1.72605 301.087 5.03905C305.283 8.69205 305.497 14.5071 305.508 19.9021C305.565 49.0551 305.506 78.2391 305.526 107.397L305.535 134.542C305.531 141.954 306.969 154.553 300.891 159.728C292.747 166.661 284.254 164.468 277.319 157.279C256.416 169.569 233.912 168.94 213.5 156.149C163.641 122.062 189.241 45.359 249.165 47.628C259.105 48.004 266.074 50.415 274.881 54.899C275.021 43.819 274.805 32.731 274.829 21.649C274.839 16.637 275.038 11.567 277.959 7.24905C280.907 2.89105 284.161 1.74004 289.012 0.796042Z" fill="#FE371F"/>
<path d="M242.556 78.376C258.349 76.287 272.818 87.468 274.781 103.277C276.744 119.086 265.449 133.465 249.625 135.302C233.978 137.118 219.795 125.977 217.854 110.346C215.913 94.714 226.94 80.442 242.556 78.376Z" fill="white"/>
<path d="M406.259 55.6219C414.457 44.7259 428.989 43.6269 434.736 58.7599C435.678 61.2399 435.331 71.8189 435.337 74.9089L435.344 98.5229L435.328 130.907C435.314 143.993 438.802 165.096 417.768 163.703C413.402 163.414 409.95 160.537 407.367 157.175C402.243 160.155 399.055 161.549 393.447 163.459C374.073 168.816 354.439 165.786 338.692 152.83C298.027 119.372 317.39 53.0609 370.452 47.8259C385.034 46.4919 393.549 49.4819 406.259 55.6219Z" fill="#FE371F"/>
<path d="M372.81 78.2769C388.619 76.4749 402.876 87.8779 404.592 103.696C406.308 119.514 394.828 133.708 379.001 135.339C363.295 136.956 349.232 125.583 347.529 109.886C345.827 94.1889 357.123 80.0649 372.81 78.2769Z" fill="white"/>
<path d="M553.544 0.803983C572.21 0.320983 570.359 17.805 570.13 30.855C570.033 36.397 570.074 42.05 570.057 47.588C577.376 47.513 598.196 45.464 604.651 51.043C613.142 58.381 611.552 73.594 599.917 76.892C592.822 78.904 578.374 78.133 570.059 78.101C570.169 91.65 569.859 105.261 570.132 118.775C570.347 129.407 573.799 135.711 585.096 136.762C590.208 137.337 596.05 137.558 599.923 141.412C604.397 145.062 604.273 155.871 599.651 159.429C587.343 168.905 561.464 161.123 551.623 151.04C539.031 138.137 540.414 121.043 540.399 104.842L540.391 78.056C528.294 78.042 505.125 76.633 494.652 80.793C483.72 86.871 477.348 96.969 478.512 109.753C479.485 120.448 487.529 130.798 497.786 134.06C504.291 135.995 511.985 134.89 517.45 139.597C524.666 145.812 523.497 158.537 515.449 163.484C512.669 165.194 509.528 166.092 506.185 166.04C453.83 165.225 428.476 102.138 465.047 64.93C474.263 55.554 487.212 49.346 500.425 47.941C513.345 47.075 527.444 47.47 540.491 47.484C540.392 36.881 539.742 24.317 540.538 13.713C541.07 6.62801 546.669 2.23198 553.544 0.803983Z" fill="#FE371F"/>
<path d="M140.625 103.582L140.491 77.4799C140.476 68.6709 138.933 57.9339 147.126 52.8879C159.493 45.2719 171.299 54.6799 170.445 68.3639C169.75 79.5069 171.255 91.9979 170.268 102.877C170.584 116.028 170.358 129.187 170.418 142.338C170.44 147.29 170.142 152.457 166.541 156.237C163.759 159.326 160.139 160.959 156.049 161.166C148.767 161.696 142.313 156.328 141.058 149.191C140.104 143.765 140.504 137.106 140.523 131.498L140.625 103.582Z" fill="#1624AA"/>
<path d="M170.268 102.877C170.584 116.028 170.358 129.187 170.418 142.338C170.44 147.29 170.142 152.457 166.541 156.237C163.759 159.326 160.139 160.959 156.049 161.166C148.767 161.696 142.313 156.328 141.058 149.191C140.104 143.765 140.504 137.106 140.523 131.498L140.625 103.582C147.658 103.731 147.951 109.658 149.173 115.362C153.17 117.841 157.956 120.447 160.952 114.966C164.44 108.585 162.915 105.461 170.268 102.877Z" fill="#FE371F"/>
<path d="M640.919 50.468C661.904 48.486 658.602 69.126 658.599 83.028L658.584 112.047C658.577 121.162 658.481 130.479 658.596 139.581C658.731 150.193 658.329 157.526 646.429 160.992C636.141 161.658 629.053 156.58 628.96 145.884C628.726 119.021 628.649 92.098 629.017 65.239C629.13 56.931 633.478 52.832 640.919 50.468Z" fill="#FE371F"/>
<path d="M153.006 0.910977C161.075 -0.408023 168.676 5.09097 169.949 13.168C171.221 21.244 165.678 28.814 157.595 30.039C149.576 31.256 142.081 25.768 140.819 17.756C139.557 9.74498 145.002 2.21898 153.006 0.910977Z" fill="#1624AA"/>
<path d="M641.172 0.958095C646.394 0.0380952 651.708 1.99608 655.086 6.08508C658.464 10.1731 659.384 15.7611 657.495 20.7161C655.607 25.6721 651.201 29.2301 645.959 30.0341C637.979 31.2571 630.5 25.8301 629.188 17.8631C627.876 9.89709 633.22 2.3581 641.172 0.958095Z" fill="#1624AA"/>
</svg>
