<svg width="190" height="190" viewBox="0 0 190 190" fill="none" xmlns="http://www.w3.org/2000/svg">
<circle cx="95" cy="95" r="93.5" fill="#E58F90" stroke="black" stroke-width="3"/>
<ellipse cx="41.0227" cy="60.8144" rx="9.35606" ry="7.55682" fill="#E7A3BA"/>
<ellipse cx="137.462" cy="51.4583" rx="9.35606" ry="7.55682" fill="#E7A3BA"/>
<path fill-rule="evenodd" clip-rule="evenodd" d="M120.909 48.2197C124.884 48.2197 128.106 44.9975 128.106 41.0227C128.106 37.0479 124.884 33.8257 120.909 33.8257C116.934 33.8257 113.712 37.0479 113.712 41.0227C113.712 44.9975 116.934 48.2197 120.909 48.2197ZM122.348 40.303C123.143 40.303 123.788 39.3364 123.788 38.1439C123.788 36.9515 123.143 35.9848 122.348 35.9848C121.553 35.9848 120.909 36.9515 120.909 38.1439C120.909 39.3364 121.553 40.303 122.348 40.303Z" fill="#1B1414"/>
<path fill-rule="evenodd" clip-rule="evenodd" d="M55.4167 53.2576C59.3915 53.2576 62.6137 50.0354 62.6137 46.0606C62.6137 42.0858 59.3915 38.8636 55.4167 38.8636C51.4419 38.8636 48.2197 42.0858 48.2197 46.0606C48.2197 50.0354 51.4419 53.2576 55.4167 53.2576ZM56.8561 45.3409C57.651 45.3409 58.2955 44.3743 58.2955 43.1818C58.2955 41.9894 57.651 41.0227 56.8561 41.0227C56.0611 41.0227 55.4167 41.9894 55.4167 43.1818C55.4167 44.3743 56.0611 45.3409 56.8561 45.3409Z" fill="#1B1414"/>
<path d="M84.9243 54.3371C88.4028 54.8169 96.3674 54.3371 100.398 48.5796" stroke="black" stroke-width="3" stroke-linecap="round"/>
<path d="M97.5189 45.7007C99.3182 47.0202 102.989 49.875 103.276 50.7386" stroke="black" stroke-width="3" stroke-linecap="round"/>
</svg>
