<svg width="163" height="206" viewBox="0 0 163 206" fill="none" xmlns="http://www.w3.org/2000/svg">
<mask id="mask0_65_154" style="mask-type:alpha" maskUnits="userSpaceOnUse" x="0" y="0" width="163" height="206">
<rect width="163" height="206" fill="#D9D9D9"/>
</mask>
<g mask="url(#mask0_65_154)">
<circle cx="100" cy="102" r="93.5" fill="#E58F90" stroke="black" stroke-width="3"/>
<ellipse cx="46.0227" cy="67.8144" rx="9.35606" ry="7.55682" fill="#E7A3BA"/>
<ellipse cx="142.462" cy="58.4583" rx="9.35606" ry="7.55682" fill="#E7A3BA"/>
<path fill-rule="evenodd" clip-rule="evenodd" d="M125.909 55.2197C129.884 55.2197 133.106 51.9975 133.106 48.0227C133.106 44.0479 129.884 40.8257 125.909 40.8257C121.934 40.8257 118.712 44.0479 118.712 48.0227C118.712 51.9975 121.934 55.2197 125.909 55.2197ZM127.348 47.303C128.143 47.303 128.788 46.3364 128.788 45.1439C128.788 43.9515 128.143 42.9848 127.348 42.9848C126.553 42.9848 125.909 43.9515 125.909 45.1439C125.909 46.3364 126.553 47.303 127.348 47.303Z" fill="#1B1414"/>
<path fill-rule="evenodd" clip-rule="evenodd" d="M60.4167 60.2576C64.3915 60.2576 67.6137 57.0354 67.6137 53.0606C67.6137 49.0858 64.3915 45.8636 60.4167 45.8636C56.4419 45.8636 53.2197 49.0858 53.2197 53.0606C53.2197 57.0354 56.4419 60.2576 60.4167 60.2576ZM61.8561 52.3409C62.651 52.3409 63.2955 51.3743 63.2955 50.1818C63.2955 48.9894 62.651 48.0227 61.8561 48.0227C61.0611 48.0227 60.4167 48.9894 60.4167 50.1818C60.4167 51.3743 61.0611 52.3409 61.8561 52.3409Z" fill="#1B1414"/>
<path d="M89.9243 61.3371C93.4028 61.8169 101.367 61.3371 105.398 55.5796" stroke="black" stroke-width="3" stroke-linecap="round"/>
<path d="M102.519 52.7007C104.318 54.0202 107.989 56.875 108.276 57.7386" stroke="black" stroke-width="3" stroke-linecap="round"/>
</g>
</svg>
