<svg width="420" height="183" viewBox="0 0 420 183" fill="none" xmlns="http://www.w3.org/2000/svg">
<mask id="mask0_75_7" style="mask-type:alpha" maskUnits="userSpaceOnUse" x="0" y="0" width="420" height="183">
<rect width="420" height="183" fill="#D9D9D9"/>
</mask>
<g mask="url(#mask0_75_7)">
<rect x="25.7451" y="160.516" width="139.813" height="491.392" rx="69.9067" transform="rotate(-89.8313 25.7451 160.516)" fill="#72C965" stroke="black" stroke-width="3.26413"/>
<path d="M91.6657 47.0349C89.7704 46.7174 88.4996 49.3843 88.1011 50.7575C88.36 53.0526 91.1309 54.0682 91.7867 53.9942C92.4424 53.9203 94.8435 51.6571 94.9865 49.9807C95.1294 48.3044 94.0348 47.4317 91.6657 47.0349Z" fill="black"/>
<path d="M48.777 84.8181C46.8818 84.5006 45.6109 87.1675 45.2124 88.5407C45.4713 90.8358 48.2423 91.8514 48.898 91.7774C49.5538 91.7035 51.9548 89.4403 52.0978 87.7639C52.2407 86.0876 51.1462 85.2149 48.777 84.8181Z" fill="black"/>
<path d="M81.8163 62.5947C78.8126 61.871 78.3363 66.0864 78.4736 68.2845C78.0044 70.9938 75.6743 76.4366 70.1068 76.5334C63.1474 76.6544 64.0621 78.8755 64.21 80.187C64.3284 81.2362 66.4732 82.5881 67.5307 83.1329C69.5473 83.3482 74.6361 83.1283 78.8585 80.5269C83.0808 77.9255 84.7116 72.5616 84.9991 70.2048C85.1897 67.9696 84.82 63.3184 81.8163 62.5947Z" stroke="black" stroke-width="1.97973"/>
<path d="M78.2197 68.9771L84.4913 71.5901" stroke="black" stroke-width="1.97973"/>
<path d="M75.3847 73.2812L80.3129 78.7022" stroke="black" stroke-width="1.97973"/>
<path d="M72.074 76.3115L74.0882 82.3932" stroke="black" stroke-width="1.97973"/>
<path d="M82.6182 40.4182C83.297 39.5668 84.9823 37.8272 86.2938 37.6792" stroke="black" stroke-width="1.97973" stroke-linecap="round"/>
<path d="M37.7222 81.0119C38.4009 80.1606 40.0863 78.4209 41.3978 78.273" stroke="black" stroke-width="1.97973" stroke-linecap="round"/>
<path d="M106.78 42.6733C103.518 44.3694 102.346 49.4824 102.168 51.8268C102.279 52.8104 103.033 54.7841 105.161 54.8097C107.821 54.8417 106.583 55.6454 113.463 51.8808C118.968 48.8691 117.957 44.6222 116.764 42.8752C114.795 42.1012 110.042 40.9771 106.78 42.6733Z" fill="#E7A3BA"/>
<path d="M41.7469 101.971C38.4849 103.667 37.3129 108.78 37.1346 111.125C37.2456 112.108 37.9995 114.082 40.1275 114.108C42.7875 114.14 41.5499 114.943 48.4303 111.179C53.9346 108.167 52.9243 103.92 51.7311 102.173C49.7621 101.399 45.0088 100.275 41.7469 101.971Z" fill="#E7A3BA"/>
</g>
</svg>
