<svg width="175" height="377" viewBox="0 0 175 377" fill="none" xmlns="http://www.w3.org/2000/svg">
<mask id="path-1-inside-1_64_2" fill="white">
<path fill-rule="evenodd" clip-rule="evenodd" d="M88.668 0.355919C135.944 0.355915 174.269 38.6806 174.269 85.9564L174.269 153.084C174.269 153.101 174.269 153.117 174.269 153.133L174.269 343.296C174.269 361.693 159.355 376.606 140.958 376.606L34.0542 376.606C15.6573 376.606 0.743608 361.693 0.743606 343.296L0.743605 153.084L0.743585 97.6622C0.743585 97.6514 0.7436 97.6407 0.7436 97.63L0.743599 85.9564C0.743595 38.6806 39.0682 0.355923 86.3441 0.355919L88.668 0.355919Z"/>
</mask>
<path fill-rule="evenodd" clip-rule="evenodd" d="M88.668 0.355919C135.944 0.355915 174.269 38.6806 174.269 85.9564L174.269 153.084C174.269 153.101 174.269 153.117 174.269 153.133L174.269 343.296C174.269 361.693 159.355 376.606 140.958 376.606L34.0542 376.606C15.6573 376.606 0.743608 361.693 0.743606 343.296L0.743605 153.084L0.743585 97.6622C0.743585 97.6514 0.7436 97.6407 0.7436 97.63L0.743599 85.9564C0.743595 38.6806 39.0682 0.355923 86.3441 0.355919L88.668 0.355919Z" fill="#CCFFCA"/>
<path d="M174.269 153.133L171.17 153.133L171.17 153.132L174.269 153.133ZM0.743606 343.296L-2.35505 343.296V343.296L0.743606 343.296ZM0.743605 153.084L3.84226 153.084L3.84226 153.084L0.743605 153.084ZM0.743585 97.6622L-2.35507 97.6622L-2.35507 97.6622L0.743585 97.6622ZM171.17 85.9564C171.17 40.3919 134.233 3.45457 88.668 3.45458L88.668 -2.74274C137.655 -2.74275 177.367 36.9693 177.367 85.9564L171.17 85.9564ZM171.17 153.084L171.17 85.9564L177.367 85.9564L177.367 153.084L171.17 153.084ZM171.17 153.132C171.17 153.116 171.17 153.1 171.17 153.084L177.367 153.084C177.367 153.101 177.367 153.118 177.367 153.135L171.17 153.132ZM171.17 343.296L171.17 153.133L177.367 153.133L177.367 343.296L171.17 343.296ZM140.958 373.508C157.644 373.508 171.17 359.981 171.17 343.296L177.367 343.296C177.367 363.404 161.066 379.705 140.958 379.705L140.958 373.508ZM34.0542 373.508L140.958 373.508L140.958 379.705L34.0542 379.705L34.0542 373.508ZM3.84227 343.296C3.84227 359.981 17.3686 373.508 34.0542 373.508L34.0542 379.705C13.9459 379.705 -2.35505 363.404 -2.35505 343.296L3.84227 343.296ZM3.84226 153.084L3.84227 343.296L-2.35505 343.296L-2.35505 153.084L3.84226 153.084ZM3.84224 97.6622L3.84226 153.084L-2.35505 153.084L-2.35507 97.6622L3.84224 97.6622ZM3.84226 97.63C3.84226 97.6366 3.84225 97.6431 3.84225 97.6483C3.84225 97.6538 3.84224 97.6581 3.84224 97.6622L-2.35507 97.6622C-2.35507 97.6555 -2.35507 97.6491 -2.35507 97.6439C-2.35506 97.6383 -2.35506 97.634 -2.35506 97.63L3.84226 97.63ZM3.84226 85.9564L3.84226 97.63L-2.35506 97.63L-2.35506 85.9564L3.84226 85.9564ZM86.3441 3.45458C40.7796 3.45458 3.84225 40.3919 3.84226 85.9564L-2.35506 85.9564C-2.35507 36.9692 37.3569 -2.74274 86.3441 -2.74274L86.3441 3.45458ZM88.668 3.45458L86.3441 3.45458L86.3441 -2.74274L88.668 -2.74274L88.668 3.45458Z" fill="black" mask="url(#path-1-inside-1_64_2)"/>
<path fill-rule="evenodd" clip-rule="evenodd" d="M49.8934 79.0545C49.6642 79.1948 49.4403 79.3486 49.2232 79.5169C47.415 80.9184 45.9157 83.4512 46.0609 87.9505C46.0815 88.5919 45.5783 89.1286 44.9369 89.1493C44.2955 89.17 43.7588 88.6668 43.7381 88.0254C43.5733 82.9188 45.3018 79.6159 47.7995 77.68C50.2407 75.7879 53.2492 75.3324 55.4694 75.5473C55.5433 75.5544 55.615 75.5684 55.6838 75.5884C58.3413 75.9378 60.3928 78.2116 60.3928 80.9645C60.3928 83.9594 57.965 86.3872 54.9701 86.3872C51.9753 86.3872 49.5475 83.9594 49.5475 80.9645C49.5475 80.2923 49.6698 79.6486 49.8934 79.0545Z" fill="black"/>
<path fill-rule="evenodd" clip-rule="evenodd" d="M114.191 68.2092C113.961 68.3495 113.737 68.5033 113.52 68.6716C111.712 70.0731 110.213 72.6059 110.358 77.1052C110.379 77.7466 109.876 78.2833 109.234 78.304C108.593 78.3247 108.056 77.8215 108.035 77.1801C107.871 72.0735 109.599 68.7706 112.097 66.8347C114.538 64.9426 117.546 64.4871 119.767 64.702C119.84 64.7091 119.912 64.723 119.981 64.7431C122.639 65.0924 124.69 67.3662 124.69 70.1192C124.69 73.114 122.262 75.5419 119.267 75.5419C116.272 75.5419 113.845 73.114 113.845 70.1192C113.845 69.4469 113.967 68.8033 114.191 68.2092Z" fill="black"/>
<path d="M51.4841 61.9418C50.0639 61.9418 46.7587 62.7939 44.8995 66.2024" stroke="black" stroke-width="2.32399" stroke-linecap="round"/>
<path d="M124.69 52.4985C123.738 51.4442 120.891 49.5616 117.115 50.4653" stroke="black" stroke-width="2.32399" stroke-linecap="round"/>
<ellipse cx="10.0706" cy="8.13398" rx="10.0706" ry="8.13398" transform="matrix(-1 8.74228e-08 8.74228e-08 1 47.9981 89.4424)" fill="#E7A3BA"/>
<ellipse cx="10.0706" cy="8.13398" rx="10.0706" ry="8.13398" transform="matrix(-1 8.74228e-08 8.74228e-08 1 147.93 70.0757)" fill="#E7A3BA"/>
<path d="M103.387 82.0831C98.8678 88.0222 85.8018 97.4989 69.6888 87.8931" stroke="black" stroke-width="2.32399" stroke-linecap="round"/>
<path d="M77.7804 102.999C83.0481 102.689 83.8486 96.1561 83.5903 92.9284L73.907 90.9917C73.0033 95.1233 72.5126 103.309 77.7804 102.999Z" fill="#E7A3BA"/>
<path d="M77.8228 91.7664L77.8228 98.351" stroke="black" stroke-width="2.32399" stroke-linecap="round"/>
<path d="M77.8227 102.999C83.0905 102.689 83.891 96.1561 83.6327 92.9284L73.9494 90.9917C73.0457 95.1233 72.555 103.309 77.8227 102.999Z" stroke="black" stroke-width="2.32399" stroke-linecap="round"/>
</svg>
