<svg width="637" height="638" viewBox="0 0 637 638" fill="none" xmlns="http://www.w3.org/2000/svg">
<rect x="251.889" y="72.7576" width="139.813" height="491.392" rx="69.9067" transform="rotate(0.733357 251.889 72.7576)" fill="#72C965" stroke="black" stroke-width="3.26413"/>
<path d="M364.716 139.793C365.052 137.901 362.398 136.604 361.029 136.192C358.731 136.429 357.688 139.189 357.756 139.846C357.823 140.502 360.063 142.926 361.738 143.085C363.412 143.244 364.296 142.159 364.716 139.793Z" fill="black"/>
<path d="M327.357 96.5344C327.693 94.6424 325.039 93.3453 323.67 92.9333C321.372 93.1695 320.329 95.9303 320.397 96.5868C320.464 97.2432 322.704 99.6665 324.379 99.826C326.054 99.9854 326.937 98.8995 327.357 96.5344Z" fill="black"/>
<path d="M349.254 129.791C350.007 126.795 345.797 126.277 343.597 126.393C340.893 125.897 335.473 123.513 335.431 117.945C335.379 110.985 333.149 111.877 331.836 112.012C330.786 112.12 329.413 114.252 328.858 115.304C328.622 117.318 328.792 122.409 331.352 126.657C333.912 130.905 339.259 132.588 341.613 132.899C343.846 133.111 348.501 132.788 349.254 129.791Z" stroke="black" stroke-width="1.97973"/>
<path d="M342.908 126.132L340.233 132.377" stroke="black" stroke-width="1.97973"/>
<path d="M338.631 123.255L333.162 128.129" stroke="black" stroke-width="1.97973"/>
<path d="M335.634 119.914L329.533 121.869" stroke="black" stroke-width="1.97973"/>
<path d="M371.421 130.811C372.266 131.499 373.989 133.201 374.124 134.514" stroke="black" stroke-width="1.97973" stroke-linecap="round"/>
<path d="M331.272 85.5175C332.117 86.2046 333.839 87.907 333.974 89.2199" stroke="black" stroke-width="1.97973" stroke-linecap="round"/>
<path d="M368.928 154.95C367.264 151.671 362.163 150.449 359.82 150.248C358.836 150.349 356.855 151.083 356.808 153.211C356.75 155.871 355.959 154.625 359.655 161.542C362.612 167.076 366.869 166.108 368.628 164.932C369.421 162.97 370.592 158.228 368.928 154.95Z" fill="#E7A3BA"/>
<path d="M310.274 89.3356C308.61 86.0571 303.509 84.8348 301.166 84.6334C300.182 84.7347 298.201 85.4691 298.154 87.5967C298.096 90.2563 297.305 89.0109 301.001 95.928C303.958 101.462 308.215 100.493 309.974 99.3174C310.767 97.3562 311.938 92.6141 310.274 89.3356Z" fill="#E7A3BA"/>
</svg>
