<svg width="67" height="46" viewBox="0 0 67 46" fill="none" xmlns="http://www.w3.org/2000/svg">
<mask id="path-1-inside-1_14_229" fill="white">
<path fill-rule="evenodd" clip-rule="evenodd" d="M61.9519 24.2596C67.5016 18.7099 67.5016 9.71199 61.9519 4.16228C56.4022 -1.38743 47.4043 -1.38742 41.8546 4.16229L33.0571 12.9598L24.2596 4.1623C18.7099 -1.38741 9.71199 -1.38741 4.16228 4.1623C-1.38743 9.71201 -1.38742 18.7099 4.16229 24.2596L21.1842 41.2815C24.424 44.5213 28.839 45.8698 33.0572 45.3268C37.2752 45.8697 41.6902 44.5213 44.93 41.2814L61.9519 24.2596Z"/>
</mask>
<path fill-rule="evenodd" clip-rule="evenodd" d="M61.9519 24.2596C67.5016 18.7099 67.5016 9.71199 61.9519 4.16228C56.4022 -1.38743 47.4043 -1.38742 41.8546 4.16229L33.0571 12.9598L24.2596 4.1623C18.7099 -1.38741 9.71199 -1.38741 4.16228 4.1623C-1.38743 9.71201 -1.38742 18.7099 4.16229 24.2596L21.1842 41.2815C24.424 44.5213 28.839 45.8698 33.0572 45.3268C37.2752 45.8697 41.6902 44.5213 44.93 41.2814L61.9519 24.2596Z" fill="#CBFEC9"/>
<path d="M61.9519 24.2596L65.6059 27.9136L61.9519 24.2596ZM41.8546 4.16229L38.2005 0.508235L38.2005 0.508236L41.8546 4.16229ZM33.0571 12.9598L29.403 16.6139L33.0571 20.2679L36.7111 16.6139L33.0571 12.9598ZM24.2596 4.1623L27.9136 0.508245V0.508245L24.2596 4.1623ZM4.16228 4.1623L0.508228 0.508246L0.508228 0.508246L4.16228 4.1623ZM4.16229 24.2596L0.508236 27.9136H0.508236L4.16229 24.2596ZM21.1842 41.2815L24.8382 37.6274L21.1842 41.2815ZM33.0572 45.3268L33.7168 40.2015L33.0571 40.1166L32.3974 40.2015L33.0572 45.3268ZM44.93 41.2814L48.5841 44.9355V44.9355L44.93 41.2814ZM58.2978 7.81633C61.8295 11.348 61.8295 17.0739 58.2978 20.6055L65.6059 27.9136C73.1737 20.3458 73.1737 8.07602 65.6059 0.508229L58.2978 7.81633ZM45.5086 7.81634C49.0403 4.2847 54.7662 4.2847 58.2978 7.81633L65.6059 0.508229C58.0381 -7.05956 45.7683 -7.05955 38.2005 0.508235L45.5086 7.81634ZM36.7111 16.6139L45.5086 7.81634L38.2005 0.508236L29.403 9.30576L36.7111 16.6139ZM20.6055 7.81635L29.403 16.6139L36.7111 9.30576L27.9136 0.508245L20.6055 7.81635ZM7.81633 7.81635C11.348 4.28471 17.0739 4.28471 20.6055 7.81635L27.9136 0.508245C20.3458 -7.05954 8.07602 -7.05954 0.508228 0.508246L7.81633 7.81635ZM7.81634 20.6055C4.2847 17.0739 4.2847 11.348 7.81633 7.81635L0.508228 0.508246C-7.05956 8.07604 -7.05955 20.3459 0.508236 27.9136L7.81634 20.6055ZM24.8382 37.6274L7.81634 20.6055L0.508236 27.9136L17.5301 44.9355L24.8382 37.6274ZM32.3974 40.2015C29.6991 40.5488 26.8979 39.6871 24.8382 37.6274L17.5301 44.9355C21.9502 49.3556 27.979 51.1907 33.7169 50.4522L32.3974 40.2015ZM41.276 37.6274C39.2163 39.687 36.4151 40.5488 33.7168 40.2015L32.3975 50.4522C38.1353 51.1907 44.1641 49.3555 48.5841 44.9355L41.276 37.6274ZM58.2978 20.6055L41.276 37.6274L48.5841 44.9355L65.6059 27.9136L58.2978 20.6055Z" fill="#72C765" mask="url(#path-1-inside-1_14_229)"/>
</svg>
