<svg width="435" height="436" viewBox="0 0 435 436" fill="none" xmlns="http://www.w3.org/2000/svg">
<mask id="mask0_89_3" style="mask-type:alpha" maskUnits="userSpaceOnUse" x="0" y="0" width="435" height="436">
<rect width="435" height="436" fill="#D9D9D9"/>
</mask>
<g mask="url(#mask0_89_3)">
<mask id="path-2-inside-1_89_3" fill="white">
<path fill-rule="evenodd" clip-rule="evenodd" d="M281.834 12C232.197 12 191.958 52.239 191.958 101.876C191.958 102.151 191.959 102.425 191.962 102.698C191.959 102.888 191.958 103.077 191.958 103.267V252.776C191.958 276.525 211.21 295.776 234.958 295.776H335.368C359.117 295.776 378.368 276.525 378.368 252.777V103.267C378.368 103.077 378.367 102.888 378.365 102.698C378.367 102.425 378.368 102.151 378.368 101.876C378.368 52.239 338.129 12 288.492 12H281.834Z"/>
</mask>
<path fill-rule="evenodd" clip-rule="evenodd" d="M281.834 12C232.197 12 191.958 52.239 191.958 101.876C191.958 102.151 191.959 102.425 191.962 102.698C191.959 102.888 191.958 103.077 191.958 103.267V252.776C191.958 276.525 211.21 295.776 234.958 295.776H335.368C359.117 295.776 378.368 276.525 378.368 252.777V103.267C378.368 103.077 378.367 102.888 378.365 102.698C378.367 102.425 378.368 102.151 378.368 101.876C378.368 52.239 338.129 12 288.492 12H281.834Z" fill="#CCFFCA"/>
<path d="M191.962 102.698L195.961 102.75L195.962 102.706L195.962 102.662L191.962 102.698ZM378.365 102.698L374.365 102.663L374.364 102.707L374.365 102.75L378.365 102.698ZM195.958 101.876C195.958 54.4482 234.406 16 281.834 16V8C229.988 8 187.958 50.0299 187.958 101.876H195.958ZM195.962 102.662C195.959 102.401 195.958 102.139 195.958 101.876H187.958C187.958 102.163 187.959 102.448 187.962 102.734L195.962 102.662ZM195.958 103.267C195.958 103.094 195.959 102.922 195.961 102.75L187.962 102.646C187.959 102.853 187.958 103.06 187.958 103.267H195.958ZM195.958 252.776V103.267H187.958V252.776H195.958ZM234.958 291.776C213.419 291.776 195.958 274.316 195.958 252.776H187.958C187.958 278.734 209.001 299.776 234.958 299.776V291.776ZM335.368 291.776H234.958V299.776H335.368V291.776ZM374.368 252.777C374.368 274.316 356.908 291.776 335.368 291.776V299.776C361.326 299.776 382.368 278.734 382.368 252.777H374.368ZM374.368 103.267V252.777H382.368V103.267H374.368ZM374.365 102.75C374.367 102.922 374.368 103.094 374.368 103.267H382.368C382.368 103.06 382.367 102.853 382.364 102.647L374.365 102.75ZM374.368 101.876C374.368 102.139 374.367 102.401 374.365 102.663L382.365 102.734C382.367 102.449 382.368 102.163 382.368 101.876H374.368ZM288.492 16C335.92 16 374.368 54.4482 374.368 101.876H382.368C382.368 50.0299 340.338 8 288.492 8V16ZM281.834 16H288.492V8H281.834V16Z" fill="black" mask="url(#path-2-inside-1_89_3)"/>
<path fill-rule="evenodd" clip-rule="evenodd" d="M325.697 96.924C325.846 97.023 325.992 97.1279 326.135 97.2387C328.002 98.6864 329.588 101.324 329.434 106.091C329.408 106.919 330.057 107.612 330.885 107.639C331.713 107.666 332.406 107.016 332.433 106.188C332.612 100.637 330.73 97.0051 327.972 94.8675C325.288 92.7865 321.987 92.2894 319.555 92.5248C319.193 92.5598 318.874 92.7201 318.637 92.9586C316.135 93.6129 314.29 95.8883 314.29 98.5947C314.29 101.812 316.898 104.42 320.115 104.42C323.332 104.42 325.94 101.812 325.94 98.5947C325.94 98.014 325.855 97.4532 325.697 96.924Z" fill="black"/>
<path fill-rule="evenodd" clip-rule="evenodd" d="M256.626 85.2731C256.774 85.3722 256.92 85.477 257.063 85.5878C258.931 87.0355 260.516 89.673 260.363 94.4406C260.336 95.2686 260.986 95.9615 261.814 95.9882C262.642 96.0149 263.334 95.3653 263.361 94.5373C263.54 88.9858 261.659 85.3542 258.901 83.2167C256.216 81.1356 252.915 80.6385 250.483 80.8739C250.122 80.9089 249.803 81.0692 249.565 81.3077C247.064 81.962 245.218 84.2374 245.218 86.9438C245.218 90.1611 247.826 92.7692 251.043 92.7692C254.261 92.7692 256.869 90.1611 256.869 86.9438C256.869 86.3632 256.784 85.8023 256.626 85.2731Z" fill="black"/>
<path d="M323.86 78.1592C325.386 78.1592 328.936 79.0746 330.934 82.7362" stroke="black" stroke-width="3" stroke-linecap="round"/>
<path d="M245.218 68.0142C246.24 66.8816 249.299 64.8592 253.355 65.83" stroke="black" stroke-width="3" stroke-linecap="round"/>
<ellipse cx="338.423" cy="116.44" rx="10.8185" ry="8.73799" fill="#E7A3BA"/>
<ellipse cx="231.071" cy="95.635" rx="10.8185" ry="8.73799" fill="#E7A3BA"/>
<path d="M268.103 99.7959C272.958 106.176 286.994 116.356 304.304 106.037" stroke="black" stroke-width="3" stroke-linecap="round"/>
<path d="M295.611 122.265C289.952 121.932 289.092 114.914 289.37 111.447L299.772 109.366C300.743 113.805 301.27 122.598 295.611 122.265Z" fill="#E7A3BA"/>
<path d="M295.566 110.198V117.272" stroke="black" stroke-width="3" stroke-linecap="round"/>
<path d="M295.566 122.265C289.907 121.932 289.047 114.914 289.324 111.447L299.726 109.366C300.697 113.805 301.224 122.598 295.566 122.265Z" stroke="black" stroke-width="3" stroke-linecap="round"/>
<path d="M85.7667 157.979C95.1978 125.722 135.765 115.598 159.256 139.359L159.808 139.927L280.303 266.008C303.704 290.495 291.823 331.132 258.916 339.156L89.479 380.466C56.8287 388.427 27.7763 358.357 36.6089 326.132L36.8244 325.371L85.7667 157.979Z" fill="#DF6248" stroke="black" stroke-width="4"/>
<ellipse cx="192.348" cy="216.721" rx="9.90204" ry="6.65751" transform="rotate(-22.8522 192.348 216.721)" fill="#E7A3BA"/>
<ellipse cx="91.5045" cy="240.25" rx="9.90204" ry="6.65751" transform="rotate(-11.871 91.5045 240.25)" fill="#E7A3BA"/>
<path d="M128.296 220.879C132.04 226.289 140.612 233.362 144.939 218.383" stroke="black" stroke-width="3" stroke-linecap="round"/>
<path d="M177.811 208.397C172.402 195.082 161.999 194.665 163.247 210.477" stroke="black" stroke-width="3" stroke-linecap="round"/>
<path d="M110.09 224.945C104.681 211.63 94.2788 211.214 95.5271 227.026" stroke="black" stroke-width="3" stroke-linecap="round"/>
<path d="M89.5988 206.316C90.0148 205.345 92.0953 203.071 97.0885 201.739" stroke="black" stroke-width="3" stroke-linecap="round"/>
<path d="M164.496 187.859C165.423 187.354 168.465 186.854 173.212 188.896" stroke="black" stroke-width="3" stroke-linecap="round"/>
<circle cx="325.108" cy="326.568" r="108.349" fill="#E58F90" stroke="black" stroke-width="3"/>
<ellipse cx="262.694" cy="287.038" rx="10.8185" ry="8.73799" fill="#E7A3BA"/>
<ellipse cx="374.207" cy="276.22" rx="10.8185" ry="8.73799" fill="#E7A3BA"/>
<path fill-rule="evenodd" clip-rule="evenodd" d="M355.067 272.475C359.663 272.475 363.389 268.749 363.389 264.153C363.389 259.557 359.663 255.832 355.067 255.832C350.471 255.832 346.745 259.557 346.745 264.153C346.745 268.749 350.471 272.475 355.067 272.475ZM356.731 263.321C357.651 263.321 358.396 262.203 358.396 260.825C358.396 259.446 357.651 258.328 356.731 258.328C355.812 258.328 355.067 259.446 355.067 260.825C355.067 262.203 355.812 263.321 356.731 263.321Z" fill="#1B1414"/>
<path fill-rule="evenodd" clip-rule="evenodd" d="M279.338 278.301C283.934 278.301 287.66 274.575 287.66 269.979C287.66 265.383 283.934 261.657 279.338 261.657C274.742 261.657 271.016 265.383 271.016 269.979C271.016 274.575 274.742 278.301 279.338 278.301ZM281.002 269.146C281.921 269.146 282.667 268.029 282.667 266.65C282.667 265.271 281.921 264.153 281.002 264.153C280.083 264.153 279.338 265.271 279.338 266.65C279.338 268.029 280.083 269.146 281.002 269.146Z" fill="#1B1414"/>
<path d="M313.458 279.549C317.48 280.103 326.689 279.549 331.35 272.891" stroke="black" stroke-width="3" stroke-linecap="round"/>
<path d="M328.021 269.562C330.101 271.088 334.346 274.389 334.678 275.388" stroke="black" stroke-width="3" stroke-linecap="round"/>
</g>
</svg>
