<svg id="Capa_1" data-name="Capa 1" xmlns="http://www.w3.org/2000/svg" viewBox="0 0 500 500"><defs><style>.cls-1{fill:#f5da42;}.cls-2{fill:#1d1d1b;}.cls-3{fill:#0e0c0d;}.cls-4{fill:#010101;}.cls-5{fill:#e8a3ba;}</style></defs><rect class="cls-1" x="59.17" y="147.24" width="339.05" height="218.06" rx="109.03" transform="translate(484.96 27.58) rotate(90)"/><path class="cls-2" d="M228.69,428.58A111.73,111.73,0,0,1,116.88,316.76v-121a111.81,111.81,0,1,1,223.62,0v121A111.72,111.72,0,0,1,228.69,428.58Zm0-339.06A106.38,106.38,0,0,0,122.44,195.77v121A106.37,106.37,0,0,0,228.69,423h0A106.37,106.37,0,0,0,334.94,316.76v-121A106.37,106.37,0,0,0,228.69,89.52Z"/><ellipse class="cls-3" cx="228.17" cy="218.69" rx="15.03" ry="12.39" transform="translate(-8.07 428.65) rotate(-85.41)"/><path class="cls-4" d="M176,148.65a1.71,1.71,0,0,0,1.44-.8c.41-.66,2.65-2.49,7.35-2.18h.11a1.7,1.7,0,0,0,.1-3.39c-6.21-.4-9.46,2.19-10.44,3.76a1.69,1.69,0,0,0,.55,2.34A1.59,1.59,0,0,0,176,148.65Z"/><path class="cls-4" d="M284.52,149.46a1.69,1.69,0,0,0,1.35-2.73c-3-3.91-6.46-4.35-8.09-4a1.7,1.7,0,0,0-1.29,2,1.64,1.64,0,0,0,2,1.29s2.29-.32,4.66,2.78A1.73,1.73,0,0,0,284.52,149.46Z"/><path class="cls-5" d="M226.9,221.36c4.4.34,4.38,4.95,3.81,7.21a6.53,6.53,0,0,1-5.5,2.12c-2.71-.34-4.52-3.25-5.09-4.66A6.31,6.31,0,0,1,226.9,221.36Z"/><ellipse class="cls-5" cx="298.5" cy="193.51" rx="14.41" ry="10.17"/><ellipse class="cls-5" cx="158.68" cy="193.56" rx="14.41" ry="10.17"/><path d="M174.15,152.23l-2.68,1.25a2.78,2.78,0,0,1-.27.21,23.05,23.05,0,0,0-6.42,5.25,2.64,2.64,0,0,0,2.07,4.39,2.75,2.75,0,0,0,2.06-1.08,18.75,18.75,0,0,1,22.83-4.18,14.18,14.18,0,0,1,7.3,8,13.12,13.12,0,0,1-2.24,12.62,8.73,8.73,0,0,1-4.49,3,8.93,8.93,0,0,1-8.25-1.59,6,6,0,0,1-.92-8.67,3.8,3.8,0,0,1,5.24-.52,2.16,2.16,0,0,1,.82,1.6,2.5,2.5,0,0,1-.62,1.63,2.62,2.62,0,0,0,.47,3.59,2.65,2.65,0,0,0,3.7-.35,7.43,7.43,0,0,0,.24-9.27,8.26,8.26,0,0,0-4.75-3,8.71,8.71,0,0,0-8.53,2.3,11.2,11.2,0,0,0-1,14.75,13.31,13.31,0,0,0,8.19,5,14.38,14.38,0,0,0,11.85-2.92,16.29,16.29,0,0,0,5-7.07c2.49-6.84,1.46-13.15-3.17-18.78a21,21,0,0,0-7.7-5.64,24.1,24.1,0,0,0-17.09-1Z"/><path d="M255.37,152.23l-2.68,1.25-.27.21a22.91,22.91,0,0,0-6.42,5.25,2.64,2.64,0,0,0,2.07,4.39,2.77,2.77,0,0,0,2.06-1.08,18.16,18.16,0,0,1,9-5.66A18.37,18.37,0,0,1,273,158.07a14.22,14.22,0,0,1,7.3,8,12.84,12.84,0,0,1,.71,4.76,13,13,0,0,1-3,7.86,8.73,8.73,0,0,1-4.49,3,8.93,8.93,0,0,1-8.25-1.59,6,6,0,0,1-.93-8.67,3.81,3.81,0,0,1,5.24-.52,2.17,2.17,0,0,1,.83,1.6,2.5,2.5,0,0,1-.62,1.63,2.61,2.61,0,0,0,.47,3.59,2.65,2.65,0,0,0,3.7-.35,7.43,7.43,0,0,0,.24-9.27,8.26,8.26,0,0,0-4.75-3,8.71,8.71,0,0,0-8.53,2.3,11.19,11.19,0,0,0-1,14.75,13.28,13.28,0,0,0,8.19,5A14.41,14.41,0,0,0,280,184.23a16.29,16.29,0,0,0,5-7.07,18.12,18.12,0,0,0-3.17-18.78,21,21,0,0,0-7.7-5.64,24.1,24.1,0,0,0-17.09-1Z"/></svg>