<svg width="612" height="639" viewBox="0 0 612 639" fill="none" xmlns="http://www.w3.org/2000/svg">
<path d="M366.11 563.07C458.678 563.07 533.72 488.028 533.72 395.46C533.72 302.892 458.678 227.85 366.11 227.85C273.542 227.85 198.5 302.892 198.5 395.46C198.5 488.028 273.542 563.07 366.11 563.07Z" fill="#FCF4A6"/>
<path d="M366.11 565C459.6 565 535.65 488.94 535.65 395.46C535.65 301.98 459.6 225.92 366.11 225.92C272.62 225.92 196.57 302 196.57 395.46C196.57 488.92 272.63 565 366.11 565ZM366.11 229.78C457.47 229.78 531.8 304.1 531.8 395.46C531.8 486.82 457.47 561.14 366.11 561.14C274.75 561.14 200.42 486.82 200.42 395.46C200.42 304.1 274.75 229.78 366.11 229.78Z" fill="#010101"/>
<path d="M269.78 347.94C279.003 347.94 286.48 341.9 286.48 334.45C286.48 327 279.003 320.96 269.78 320.96C260.557 320.96 253.08 327 253.08 334.45C253.08 341.9 260.557 347.94 269.78 347.94Z" fill="#E8A3BA"/>
<path d="M441.89 331.24C451.113 331.24 458.59 325.2 458.59 317.75C458.59 310.3 451.113 304.26 441.89 304.26C432.667 304.26 425.19 310.3 425.19 317.75C425.19 325.2 432.667 331.24 441.89 331.24Z" fill="#E8A3BA"/>
<path fill-rule="evenodd" clip-rule="evenodd" d="M412.35 312C409.808 312.002 407.323 311.25 405.208 309.839C403.094 308.429 401.445 306.422 400.471 304.074C399.497 301.727 399.241 299.143 399.736 296.649C400.23 294.156 401.453 291.865 403.25 290.067C405.047 288.269 407.336 287.044 409.829 286.548C412.322 286.051 414.907 286.305 417.255 287.277C419.604 288.25 421.611 289.897 423.024 292.01C424.436 294.123 425.19 296.608 425.19 299.15C425.19 302.556 423.838 305.823 421.43 308.233C419.022 310.642 415.756 311.997 412.35 312ZM414.92 297.87C413.5 297.87 412.35 296.14 412.35 294.01C412.35 291.88 413.5 290.16 414.92 290.16C416.34 290.16 417.49 291.89 417.49 294.01C417.49 296.13 416.34 297.85 414.92 297.85V297.87Z" fill="#1B1415"/>
<path fill-rule="evenodd" clip-rule="evenodd" d="M295.47 321C292.928 321.002 290.443 320.25 288.328 318.839C286.214 317.429 284.565 315.422 283.591 313.074C282.617 310.727 282.361 308.143 282.856 305.649C283.35 303.156 284.573 300.865 286.37 299.067C288.167 297.269 290.456 296.044 292.949 295.548C295.442 295.051 298.027 295.305 300.375 296.277C302.724 297.25 304.731 298.897 306.144 301.01C307.556 303.123 308.31 305.608 308.31 308.15C308.311 309.837 307.98 311.508 307.335 313.067C306.691 314.626 305.745 316.042 304.553 317.236C303.36 318.429 301.944 319.376 300.386 320.022C298.827 320.668 297.157 321 295.47 321ZM298 306.84C296.58 306.84 295.43 305.11 295.43 302.98C295.43 300.85 296.58 299.13 298 299.13C299.42 299.13 300.57 300.86 300.57 302.98C300.57 305.1 299.46 306.84 298 306.84Z" fill="#1B1415"/>
<path d="M374.116 355.733C375.171 342.642 367.276 331.324 356.48 330.454C345.685 329.583 336.078 339.49 335.023 352.581C333.967 365.672 341.863 376.99 352.658 377.86C363.453 378.731 373.06 368.824 374.116 355.733Z" fill="#0E0C0D"/>
<path d="M352.55 358.37C359.55 358.91 359.48 366.2 358.55 369.77C357.466 370.977 356.112 371.91 354.598 372.493C353.084 373.075 351.453 373.29 349.84 373.12C345.55 372.59 342.69 367.98 341.79 365.75C342.403 363.435 343.826 361.418 345.801 360.063C347.775 358.709 350.17 358.108 352.55 358.37Z" fill="#E8A3BA"/>
<path d="M259.301 260.603L184.301 217.301L259.301 174L259.301 260.603Z" fill="white"/>
<ellipse cx="154.5" cy="123" rx="154.5" ry="123" fill="white"/>
<path d="M42.5485 114.25H36.4735V136.075C36.4735 137.92 34.8985 139.45 32.8735 139.45C30.8485 139.45 29.2735 137.92 29.2735 136.075V114.25H23.1985C21.3535 114.25 19.8235 112.72 19.8235 110.875C19.8235 109.03 21.3535 107.5 23.1985 107.5H42.5485C44.3935 107.5 45.9235 109.03 45.9235 110.875C45.9235 112.72 44.3935 114.25 42.5485 114.25ZM51.5693 136.3V121.675C51.5693 119.92 53.0093 118.525 54.9443 118.525C56.8793 118.525 58.3193 119.92 58.3193 121.675V136.3C58.3193 138.055 56.8793 139.45 54.9443 139.45C53.0093 139.45 51.5693 138.055 51.5693 136.3ZM55.0793 107.95C57.1043 107.95 58.9043 109.48 58.9043 111.775C58.9043 114.295 57.1043 115.87 55.0793 115.87C52.7393 115.87 50.9843 114.34 50.9843 111.775C50.9843 109.435 52.7843 107.95 55.0793 107.95ZM69.4853 126.625H76.7753C76.7753 125.14 75.5153 123.835 73.4903 123.835C71.4653 123.835 70.1603 124.78 69.4853 126.625ZM73.7153 118.21C76.4153 118.21 78.7103 119.11 80.6453 120.865C82.5803 122.665 83.5253 124.96 83.5253 127.75V128.65C83.5253 130.27 82.2203 131.125 80.9153 131.125H69.7103C70.2953 132.97 71.8703 133.915 74.4353 133.915C75.2903 133.915 76.2353 133.78 77.2703 133.465C77.5853 133.375 77.9003 133.33 78.1703 133.33C79.2953 133.33 80.1053 133.87 80.5103 134.95C80.6453 135.22 80.6903 135.535 80.6903 135.895C80.6903 137.11 80.0603 138.01 78.8453 138.595C77.6303 139.225 75.9203 139.54 73.7153 139.54C70.3853 139.54 67.7303 138.55 65.7503 136.615C63.7253 134.68 62.7353 132.07 62.7353 128.875C62.7353 125.86 63.7703 123.295 65.7953 121.27C67.8203 119.245 70.4303 118.21 73.7153 118.21ZM100.118 136.3V128.11C100.118 125.815 98.8126 124.69 96.7876 124.69C95.6176 124.69 94.5826 125.14 93.6376 126.085V136.3C93.6376 138.055 92.1976 139.45 90.2626 139.45C88.3276 139.45 86.8876 138.055 86.8876 136.3V121.9C86.8876 120.1 88.3726 118.525 90.5776 118.525C91.8826 118.525 92.8726 119.11 93.6376 120.28C95.0776 118.975 96.7426 118.3 98.6326 118.3C103.673 118.3 106.868 120.955 106.868 126.94V136.3C106.868 138.055 105.428 139.45 103.493 139.45C101.558 139.45 100.118 138.055 100.118 136.3ZM116.99 126.625H124.28C124.28 125.14 123.02 123.835 120.995 123.835C118.97 123.835 117.665 124.78 116.99 126.625ZM121.22 118.21C123.92 118.21 126.215 119.11 128.15 120.865C130.085 122.665 131.03 124.96 131.03 127.75V128.65C131.03 130.27 129.725 131.125 128.42 131.125H117.215C117.8 132.97 119.375 133.915 121.94 133.915C122.795 133.915 123.74 133.78 124.775 133.465C125.09 133.375 125.405 133.33 125.675 133.33C126.8 133.33 127.61 133.87 128.015 134.95C128.15 135.22 128.195 135.535 128.195 135.895C128.195 137.11 127.565 138.01 126.35 138.595C125.135 139.225 123.425 139.54 121.22 139.54C117.89 139.54 115.235 138.55 113.255 136.615C111.23 134.68 110.24 132.07 110.24 128.875C110.24 125.86 111.275 123.295 113.3 121.27C115.325 119.245 117.935 118.21 121.22 118.21ZM151.186 139.54C148.621 139.54 146.371 138.91 144.391 137.695C143.446 137.11 142.996 136.255 142.996 135.22C142.996 134.725 143.131 134.23 143.401 133.78C143.896 132.925 144.661 132.475 145.696 132.475C146.191 132.475 146.821 132.61 147.586 132.925C149.026 133.6 150.376 133.915 151.636 133.915C152.671 133.915 153.166 133.6 153.166 133.015C153.166 130.81 142.456 132.205 142.456 124.825C142.456 120.64 145.831 118.21 150.376 118.21C152.761 118.21 154.786 118.615 156.406 119.38C157.531 119.92 158.071 120.73 158.071 121.855C158.071 122.26 157.981 122.62 157.801 123.025C157.306 124.15 156.541 124.69 155.416 124.69C155.056 124.69 154.606 124.6 154.111 124.465C152.716 124.06 151.636 123.835 150.781 123.835C149.836 123.835 149.206 124.24 149.206 124.735C149.206 126.805 159.916 125.5 159.916 132.7C159.916 136.84 156.541 139.54 151.186 139.54ZM169.549 126.625H176.839C176.839 125.14 175.579 123.835 173.554 123.835C171.529 123.835 170.224 124.78 169.549 126.625ZM173.779 118.21C176.479 118.21 178.774 119.11 180.709 120.865C182.644 122.665 183.589 124.96 183.589 127.75V128.65C183.589 130.27 182.284 131.125 180.979 131.125H169.774C170.359 132.97 171.934 133.915 174.499 133.915C175.354 133.915 176.299 133.78 177.334 133.465C177.649 133.375 177.964 133.33 178.234 133.33C179.359 133.33 180.169 133.87 180.574 134.95C180.709 135.22 180.754 135.535 180.754 135.895C180.754 137.11 180.124 138.01 178.909 138.595C177.694 139.225 175.984 139.54 173.779 139.54C170.449 139.54 167.794 138.55 165.814 136.615C163.789 134.68 162.799 132.07 162.799 128.875C162.799 125.86 163.834 123.295 165.859 121.27C167.884 119.245 170.494 118.21 173.779 118.21ZM200.181 136.3V128.11C200.181 125.815 198.876 124.69 196.851 124.69C195.681 124.69 194.646 125.14 193.701 126.085V136.3C193.701 138.055 192.261 139.45 190.326 139.45C188.391 139.45 186.951 138.055 186.951 136.3V121.9C186.951 120.1 188.436 118.525 190.641 118.525C191.946 118.525 192.936 119.11 193.701 120.28C195.141 118.975 196.806 118.3 198.696 118.3C203.736 118.3 206.931 120.955 206.931 126.94V136.3C206.931 138.055 205.491 139.45 203.556 139.45C201.621 139.45 200.181 138.055 200.181 136.3ZM210.979 131.305V115.825C210.979 114.07 212.419 112.675 214.354 112.675C216.289 112.675 217.729 114.07 217.729 115.825V118.75H220.204C221.869 118.75 223.354 120.235 223.354 121.9C223.354 123.565 221.869 125.05 220.204 125.05H217.729V130.9C217.729 132.385 218.179 133.15 219.034 133.15C219.394 133.15 219.709 133.105 219.979 133.06C220.384 133.015 220.654 132.97 220.789 132.97C221.914 132.97 222.724 133.555 223.219 134.725C223.399 135.13 223.489 135.535 223.489 135.94C223.489 137.155 222.859 138.055 221.554 138.64C220.249 139.225 218.809 139.54 217.279 139.54C212.824 139.54 210.979 136.705 210.979 131.305ZM228.581 136.3V121.675C228.581 119.92 230.021 118.525 231.956 118.525C233.891 118.525 235.331 119.92 235.331 121.675V136.3C235.331 138.055 233.891 139.45 231.956 139.45C230.021 139.45 228.581 138.055 228.581 136.3ZM232.091 107.95C234.116 107.95 235.916 109.48 235.916 111.775C235.916 114.295 234.116 115.87 232.091 115.87C229.751 115.87 227.996 114.34 227.996 111.775C227.996 109.435 229.796 107.95 232.091 107.95ZM254.237 118.84V110.2C254.237 108.445 255.677 107.05 257.612 107.05C259.547 107.05 260.987 108.445 260.987 110.2V136.12C260.987 138.055 259.547 139.45 257.702 139.45C256.127 139.45 255.002 138.73 254.237 137.335C252.887 138.73 251.177 139.45 249.107 139.45C246.272 139.45 243.977 138.505 242.312 136.615C240.602 134.725 239.747 132.25 239.747 129.145C239.747 125.95 240.782 123.295 242.852 121.27C244.922 119.245 247.622 118.21 250.907 118.21C252.212 118.21 253.337 118.435 254.237 118.84ZM254.237 131.575V125.365C253.247 124.78 252.257 124.51 251.222 124.51C248.882 124.51 246.947 126.085 246.947 128.92C246.947 131.485 248.657 133.15 250.502 133.15C251.852 133.15 253.112 132.61 254.237 131.575ZM284.236 136.525C282.166 138.55 279.421 139.54 276.046 139.54C272.671 139.54 269.926 138.55 267.901 136.525C265.831 134.5 264.796 131.98 264.796 128.875C264.796 125.77 265.831 123.25 267.901 121.225C269.926 119.2 272.671 118.21 276.046 118.21C279.421 118.21 282.166 119.2 284.236 121.225C286.261 123.25 287.296 125.77 287.296 128.875C287.296 131.98 286.261 134.5 284.236 136.525ZM278.926 125.725C276.631 123.16 271.726 124.87 271.996 128.875C271.996 131.395 273.706 133.24 276.046 133.24C278.386 133.24 280.096 131.575 280.096 128.875C280.096 127.57 279.691 126.535 278.926 125.725Z" fill="black"/>
</svg>
