<svg id="Capa_1" data-name="Capa 1" xmlns="http://www.w3.org/2000/svg" viewBox="0 0 500 500"><defs><style>.cls-1{fill:#fcf4a6;}.cls-2{fill:#010101;}.cls-3{fill:#e8a3ba;}.cls-4{fill:#1b1415;fill-rule:evenodd;}.cls-5{fill:#0e0c0d;}</style></defs><circle class="cls-1" cx="254.11" cy="256.46" r="167.61"/><path class="cls-2" d="M254.11,426c93.49,0,169.54-76.06,169.54-169.54S347.6,86.92,254.11,86.92,84.57,163,84.57,256.46,160.63,426,254.11,426Zm0-335.22c91.36,0,165.69,74.32,165.69,165.68S345.47,422.14,254.11,422.14,88.42,347.82,88.42,256.46,162.75,90.78,254.11,90.78Z"/><ellipse class="cls-3" cx="157.78" cy="195.45" rx="16.7" ry="13.49"/><ellipse class="cls-3" cx="329.89" cy="178.75" rx="16.7" ry="13.49"/><path class="cls-4" d="M300.35,173a12.85,12.85,0,1,1,12.84-12.85A12.85,12.85,0,0,1,300.35,173Zm2.57-14.13c-1.42,0-2.57-1.73-2.57-3.86s1.15-3.85,2.57-3.85,2.57,1.73,2.57,3.85S304.34,158.85,302.92,158.85Z"/><path class="cls-4" d="M183.47,182a12.85,12.85,0,1,1,12.84-12.85A12.84,12.84,0,0,1,183.47,182ZM186,167.84c-1.42,0-2.57-1.73-2.57-3.86s1.15-3.85,2.57-3.85,2.57,1.73,2.57,3.85S187.46,167.84,186,167.84Z"/><ellipse class="cls-5" cx="242.56" cy="215.15" rx="23.78" ry="19.61" transform="translate(8.62 439.64) rotate(-85.39)"/><path class="cls-3" d="M240.55,219.37c7,.54,6.93,7.83,6,11.4a10.26,10.26,0,0,1-8.71,3.35c-4.29-.53-7.15-5.14-8.05-7.37A10,10,0,0,1,240.55,219.37Z"/></svg>