<svg id="Capa_1" data-name="Capa 1" xmlns="http://www.w3.org/2000/svg" xmlns:xlink="http://www.w3.org/1999/xlink" viewBox="0 0 500 500"><defs><style>.cls-1{fill:none;}.cls-2{fill:#fff;}.cls-3{fill:#010101;}.cls-4{fill:#0e0c0d;}.cls-5{fill:#a8cae7;}.cls-6{fill:#e8a3ba;}.cls-7{fill:#781913;}.cls-8{clip-path:url(#clip-path);}</style><clipPath id="clip-path"><path class="cls-1" d="M232.92,150.54c7.32,42.51,23.35,40.07,23.35,40.07,17.07-1.39,22.3-40.07,22.3-40.07a35.53,35.53,0,0,1-22.65-9.06C241.29,151.59,232.92,150.54,232.92,150.54Z"/></clipPath></defs><path class="cls-2" d="M256.19,32.6A108.89,108.89,0,0,0,147.3,141.49V357.57A108.89,108.89,0,0,0,256.19,466.46h0A108.89,108.89,0,0,0,365.08,357.57V141.49A108.89,108.89,0,0,0,256.19,32.6Z"/><path class="cls-3" d="M256.18,469A111.56,111.56,0,0,0,367.62,357.57V141.49a111.43,111.43,0,1,0-222.86,0V357.57A111.55,111.55,0,0,0,256.18,469Zm0-433.86A106.47,106.47,0,0,1,362.54,141.49V357.57a106.35,106.35,0,1,1-212.7,0V141.49A106.46,106.46,0,0,1,256.18,35.14Z"/><path class="cls-3" d="M207.56,91.91a1.7,1.7,0,0,0,1.62-.26c.62-.49,3.34-1.44,7.65.46l.1,0A1.7,1.7,0,0,0,218.19,89c-5.7-2.49-9.64-1.17-11.1,0a1.7,1.7,0,0,0,.47,2.93Z"/><path class="cls-3" d="M306.2,92.92a1.76,1.76,0,0,0,.71-.83,1.72,1.72,0,0,0-.94-2.21c-4.59-1.83-7.78-.45-9,.67a1.7,1.7,0,0,0-.08,2.4,1.67,1.67,0,0,0,2.4.08s1.81-1.45,5.42,0A1.71,1.71,0,0,0,306.2,92.92Z"/><ellipse class="cls-4" cx="302.79" cy="117.72" rx="13.93" ry="11.2" transform="translate(161.13 410.07) rotate(-85.39)"/><path class="cls-5" d="M309.15,114.37c-.43,3.39-4.8,2-7.2,0-.71-1.55-1.45-5.17,1.27-7.2C305.19,107.59,309.74,109.66,309.15,114.37Z"/><ellipse class="cls-5" cx="299.63" cy="122.34" rx="2.54" ry="1.68" transform="translate(7.96 262.59) rotate(-47.89)"/><ellipse class="cls-4" cx="210.43" cy="117.72" rx="13.93" ry="11.2" transform="translate(76.19 318.01) rotate(-85.39)"/><path class="cls-5" d="M216.78,114.37c-.42,3.39-4.8,2-7.2,0-.71-1.55-1.44-5.17,1.27-7.2C212.83,107.59,217.37,109.66,216.78,114.37Z"/><ellipse class="cls-5" cx="207.26" cy="122.34" rx="2.54" ry="1.68" transform="translate(-22.48 194.07) rotate(-47.89)"/><ellipse class="cls-6" cx="326.1" cy="138.52" rx="14.41" ry="10.17"/><ellipse class="cls-6" cx="186.28" cy="138.52" rx="14.41" ry="10.17"/><path class="cls-7" d="M233,151.59c7.32,42.5,23.35,40.07,23.35,40.07,17.07-1.4,22.3-40.07,22.3-40.07A35.53,35.53,0,0,1,256,142.53C241.37,152.63,233,151.59,233,151.59Z"/><path d="M255.77,192.21a5.07,5.07,0,0,0,.63,0c17.29-1.42,22.56-38.93,22.77-40.52a.53.53,0,0,0-.5-.6,35.34,35.34,0,0,1-22.29-8.9.52.52,0,0,0-.67-.06c-14.26,9.84-22.57,9-22.64,9a.51.51,0,0,0-.44.15.5.5,0,0,0-.13.45C239.08,189.94,252.65,192.21,255.77,192.21Zm-22.13-40.07h.15c2.47,0,10.19-.76,22.17-8.95a36.53,36.53,0,0,0,22.09,8.9c-.73,4.78-6.4,37.79-21.77,39C256.12,191.19,240.8,192.8,233.64,152.14Z"/><path d="M235.28,152.13c4.16,0,10.78-1.85,20.85-8.93,2.13,2,14.45,12.48,27.33,7.66a.52.52,0,0,0-.37-1c-13.46,5-26.41-7.6-26.54-7.72a.53.53,0,0,0-.67-.06c-12,8.52-18.94,9.51-22.61,8.81a5.82,5.82,0,0,1-3.83-2,.52.52,0,0,0-.87.57,6.71,6.71,0,0,0,4.43,2.49A11.81,11.81,0,0,0,235.28,152.13Z"/><g class="cls-8"><circle class="cls-6" cx="256.44" cy="180.68" r="26.83"/><path d="M256.44,208a27.35,27.35,0,1,0-27.35-27.35A27.39,27.39,0,0,0,256.44,208Zm0-53.65a26.3,26.3,0,1,1-26.3,26.3A26.33,26.33,0,0,1,256.44,154.38Z"/></g></svg>