<svg width="178" height="370" viewBox="0 0 178 370" fill="none" xmlns="http://www.w3.org/2000/svg">
<rect x="-1.19869" y="1.19869" width="175.008" height="366.798" rx="87.5041" transform="matrix(-1 0 0 1 175.008 0.401855)" fill="#52BECA" stroke="black" stroke-width="2.39737"/>
<ellipse cx="119.869" cy="83.863" rx="8.74424" ry="10.8729" transform="rotate(4.60801 119.869 83.863)" fill="#0F0B0C"/>
<path d="M124.829 81.2511C125.288 77.5762 121.743 75.9603 120.199 75.6296C118.083 77.2169 118.656 80.0386 119.207 81.2511C121.081 82.7942 124.498 83.8965 124.829 81.2511Z" fill="#A8CAE6"/>
<ellipse cx="117.397" cy="87.4708" rx="1.31457" ry="1.98404" transform="rotate(42.1084 117.397 87.4708)" fill="#A8CAE6"/>
<path d="M47.9476 87.5555C48.7112 86.3337 51.7047 83.9816 57.5695 84.3482" stroke="black" stroke-width="3.66548" stroke-linecap="round"/>
<path d="M50.3448 79.111C51.778 78.9633 55.4727 79.8812 58.7852 84.7348" stroke="black" stroke-width="3.66548" stroke-linecap="round"/>
<path d="M105.484 109.482C90.1412 120.99 67.9255 119.871 58.7356 117.873C61.133 131.059 56.3382 135.853 86.3054 138.251C110.279 140.169 109.08 119.871 105.484 109.482Z" fill="white" stroke="black" stroke-width="2.39737" stroke-linecap="round" stroke-linejoin="round"/>
<path d="M59.9344 126.264C68.7248 129.061 90.3811 132.257 106.683 122.668" stroke="black" stroke-width="2.39737" stroke-linecap="round"/>
<ellipse cx="133.054" cy="113.078" rx="8.3908" ry="7.19212" fill="#E7A3BA"/>
<ellipse cx="37.1592" cy="115.476" rx="8.3908" ry="7.19212" fill="#E7A3BA"/>
</svg>
