<svg width="83" height="79" viewBox="0 0 83 79" fill="none" xmlns="http://www.w3.org/2000/svg">
<path d="M55.5478 10.3557C53.6525 10.0382 52.3817 12.7051 51.9832 14.0783C52.2421 16.3734 55.013 17.389 55.6688 17.315C56.3245 17.2411 58.7256 14.9779 58.8686 13.3015C59.0115 11.6252 57.9169 10.7525 55.5478 10.3557Z" fill="black"/>
<path d="M12.6591 48.1389C10.7639 47.8214 9.49301 50.4883 9.09449 51.8615C9.3534 54.1566 12.1243 55.1722 12.7801 55.0982C13.4358 55.0243 15.8369 52.7611 15.9799 51.0847C16.1228 49.4084 15.0282 48.5357 12.6591 48.1389Z" fill="black"/>
<path d="M45.6984 25.9155C42.6947 25.1918 42.2184 29.4072 42.3557 31.6053C41.8865 34.3146 39.5563 39.7574 33.9889 39.8542C27.0295 39.9752 27.9442 42.1963 28.0921 43.5078C28.2105 44.557 30.3552 45.9089 31.4128 46.4537C33.4294 46.669 38.5182 46.4491 42.7405 43.8477C46.9629 41.2463 48.5937 35.8824 48.8812 33.5256C49.0718 31.2904 48.7021 26.6392 45.6984 25.9155Z" stroke="black" stroke-width="1.97973"/>
<path d="M42.1018 32.2979L48.3734 34.9109" stroke="black" stroke-width="1.97973"/>
<path d="M39.2668 36.6021L44.195 42.023" stroke="black" stroke-width="1.97973"/>
<path d="M35.9561 39.6323L37.9703 45.714" stroke="black" stroke-width="1.97973"/>
<path d="M46.5003 3.73898C47.1791 2.88763 48.8644 1.14796 50.1759 1.00001" stroke="black" stroke-width="1.97973" stroke-linecap="round"/>
<path d="M1.60427 44.3327C2.28301 43.4814 3.96837 41.7417 5.27987 41.5938" stroke="black" stroke-width="1.97973" stroke-linecap="round"/>
<path d="M70.6621 5.99408C67.4001 7.69024 66.2281 12.8032 66.0498 15.1476C66.1608 16.1312 66.9147 18.1049 69.0427 18.1305C71.7027 18.1625 70.4651 18.9662 77.3455 15.2016C82.8498 12.1899 81.8395 7.943 80.6463 6.196C78.6773 5.42196 73.924 4.29793 70.6621 5.99408Z" fill="#E7A3BA"/>
<path d="M5.62894 65.2919C2.36698 66.9881 1.19497 72.101 1.0167 74.4455C1.12766 75.4291 1.88158 77.4027 4.00957 77.4283C6.66956 77.4603 5.43203 78.264 12.3124 74.4994C17.8167 71.4878 16.8064 67.2409 15.6132 65.4939C13.6442 64.7198 8.89091 63.5958 5.62894 65.2919Z" fill="#E7A3BA"/>
</svg>
