<svg id="Capa_1" data-name="Capa 1" xmlns="http://www.w3.org/2000/svg" viewBox="0 0 500 500"><defs><style>.cls-1{fill:#f5da42;}.cls-2{fill:#1d1d1b;}.cls-3{fill:#010101;}.cls-4{fill:#0e0c0d;}.cls-5{fill:#a8cae7;}.cls-6{fill:#e8a3ba;}</style></defs><polygon class="cls-1" points="258.92 84.66 309.43 204.25 438.77 215.33 340.64 300.31 370.07 426.75 258.92 359.69 147.77 426.75 177.2 300.31 79.08 215.33 208.42 204.25 258.92 84.66"/><path class="cls-2" d="M173.46,301.53,142.68,433.75l116.24-70.13,116.24,70.13L344.38,301.53,447,212.65,311.74,201.07,258.92,76,206.1,201.07,70.84,212.65Zm133.65-94.1L430.53,218,336.9,299.1,365,419.75l-106.06-64-106.06,64L180.94,299.1,87.31,218l123.42-10.57L258.92,93.32Z"/><path class="cls-3" d="M305.05,231.64a1.63,1.63,0,0,1-1.57-.25c-.6-.46-3.23-1.39-7.39.44l-.09,0a1.64,1.64,0,0,1-1.21-3c5.5-2.4,9.3-1.12,10.71,0a1.65,1.65,0,0,1,.27,2.31A1.67,1.67,0,0,1,305.05,231.64Z"/><path class="cls-3" d="M209.84,232.62a1.63,1.63,0,0,1-.68-.8,1.65,1.65,0,0,1,.91-2.13c4.42-1.77,7.5-.44,8.69.64a1.65,1.65,0,0,1,.08,2.32,1.59,1.59,0,0,1-2.31.07s-1.75-1.39-5.24,0A1.67,1.67,0,0,1,209.84,232.62Z"/><ellipse class="cls-4" cx="213.13" cy="256.55" rx="10.81" ry="13.45" transform="translate(-19.92 17.95) rotate(-4.61)"/><path class="cls-5" d="M207,253.32c.41,3.27,4.63,1.91,6.95,0,.68-1.5,1.39-5-1.23-6.95C210.82,246.78,206.43,248.78,207,253.32Z"/><ellipse class="cls-5" cx="216.19" cy="261.01" rx="1.63" ry="2.45" transform="translate(-119.21 212.34) rotate(-42.11)"/><ellipse class="cls-4" cx="302.27" cy="256.55" rx="10.81" ry="13.45" transform="matrix(1, -0.08, 0.08, 1, -19.63, 25.11)"/><path class="cls-5" d="M296.14,253.32c.41,3.27,4.64,1.91,6.95,0,.68-1.5,1.39-5-1.22-6.95C300,246.78,295.57,248.78,296.14,253.32Z"/><ellipse class="cls-5" cx="305.33" cy="261.01" rx="1.63" ry="2.45" transform="translate(-96.21 272.11) rotate(-42.11)"/><ellipse class="cls-6" cx="190.64" cy="276.63" rx="13.9" ry="9.81"/><ellipse class="cls-6" cx="325.58" cy="276.63" rx="13.9" ry="9.81"/><path class="cls-6" d="M271.72,287.91s.17,25.43-15,27.45S244.53,289,244.53,289c5.82-1.08,13.88-8.27,13.88-8.27Z"/><path class="cls-2" d="M248.88,313.6a8.77,8.77,0,0,0,6.35,2.54,12.38,12.38,0,0,0,1.59-.11C272.39,314,272.4,289,272.39,287.91a.65.65,0,0,0-.35-.59l-13.31-7.15a.68.68,0,0,0-.77.09c-.08.07-8,7.08-13.55,8.1a.69.69,0,0,0-.55.6C243.78,289.69,242.07,307,248.88,313.6Zm9.62-32L271,288.31c-.07,3.2-1,24.6-14.4,26.38a7.73,7.73,0,0,1-6.82-2.05c-5.74-5.58-4.89-20.2-4.66-23.06C250.38,288.36,256.9,283,258.5,281.57Z"/><path d="M278.29,289.76c-4,0-10.41-1.78-20.13-8.61-2.05,1.88-13.94,12-26.37,7.39a.51.51,0,0,1,.36-1c13,4.87,25.49-7.33,25.61-7.45a.5.5,0,0,1,.65-.05c11.6,8.22,18.28,9.17,21.82,8.49a5.59,5.59,0,0,0,3.69-2,.5.5,0,0,1,.7-.15.51.51,0,0,1,.15.7,6.57,6.57,0,0,1-4.28,2.4A11.08,11.08,0,0,1,278.29,289.76Z"/><path class="cls-2" d="M258.22,282c8,5.6,14.8,8.44,20.07,8.44a11.52,11.52,0,0,0,2.33-.22,7.24,7.24,0,0,0,4.72-2.7,1.24,1.24,0,0,0,.16-.9,1.21,1.21,0,0,0-.52-.73,1.13,1.13,0,0,0-.88-.16,1.16,1.16,0,0,0-.74.52,5.11,5.11,0,0,1-3.25,1.67c-3.42.65-9.88-.28-21.31-8.38a1.18,1.18,0,0,0-1.52.13c-.49.48-12.46,11.95-24.89,7.29a1.18,1.18,0,0,0-1.52.7,1.12,1.12,0,0,0,0,.88,1.15,1.15,0,0,0,.66.62C243.68,293.71,255.16,284.7,258.22,282ZM232,287.9Z"/><path class="cls-6" d="M257.07,305.25c-2.19-9.59,1.09-24.1,1.09-24.1"/><path class="cls-2" d="M257.07,305.93a.67.67,0,0,1-.66-.53c-2.2-9.63,1-23.8,1.1-24.4a.67.67,0,1,1,1.31.29c0,.15-3.22,14.48-1.09,23.81a.68.68,0,0,1-.51.81Z"/></svg>