<svg width="516" height="489" viewBox="0 0 516 489" fill="none" xmlns="http://www.w3.org/2000/svg">
<mask id="path-1-inside-1_64_82" fill="white">
<path fill-rule="evenodd" clip-rule="evenodd" d="M362.834 0C313.197 0 272.958 40.239 272.958 89.8764C272.958 90.1507 272.959 90.4246 272.962 90.6982C272.959 90.8875 272.958 91.0771 272.958 91.2669V240.776C272.958 264.525 292.21 283.776 315.958 283.776H416.368C440.117 283.776 459.368 264.525 459.368 240.777V91.267C459.368 91.0772 459.367 90.8877 459.365 90.6985C459.367 90.4248 459.368 90.1507 459.368 89.8764C459.368 40.239 419.129 0 369.492 0H362.834Z"/>
</mask>
<path fill-rule="evenodd" clip-rule="evenodd" d="M362.834 0C313.197 0 272.958 40.239 272.958 89.8764C272.958 90.1507 272.959 90.4246 272.962 90.6982C272.959 90.8875 272.958 91.0771 272.958 91.2669V240.776C272.958 264.525 292.21 283.776 315.958 283.776H416.368C440.117 283.776 459.368 264.525 459.368 240.777V91.267C459.368 91.0772 459.367 90.8877 459.365 90.6985C459.367 90.4248 459.368 90.1507 459.368 89.8764C459.368 40.239 419.129 0 369.492 0H362.834Z" fill="#CCFFCA"/>
<path d="M272.962 90.6982L276.961 90.7501L276.962 90.7063L276.962 90.6624L272.962 90.6982ZM459.365 90.6985L455.365 90.6626L455.364 90.7065L455.365 90.7504L459.365 90.6985ZM276.958 89.8764C276.958 42.4482 315.406 4 362.834 4V-4C310.988 -4 268.958 38.0299 268.958 89.8764H276.958ZM276.962 90.6624C276.959 90.4007 276.958 90.1387 276.958 89.8764H268.958C268.958 90.1626 268.959 90.4485 268.962 90.7341L276.962 90.6624ZM276.958 91.2669C276.958 91.0944 276.959 90.9221 276.961 90.7501L268.962 90.6464C268.959 90.8529 268.958 91.0598 268.958 91.2669H276.958ZM276.958 240.776V91.2669H268.958V240.776H276.958ZM315.958 279.776C294.419 279.776 276.958 262.316 276.958 240.776H268.958C268.958 266.734 290.001 287.776 315.958 287.776V279.776ZM416.368 279.776H315.958V287.776H416.368V279.776ZM455.368 240.777C455.368 262.316 437.907 279.776 416.368 279.776V287.776C442.326 287.776 463.368 266.734 463.368 240.777H455.368ZM455.368 91.267V240.777H463.368V91.267H455.368ZM455.365 90.7504C455.367 90.9222 455.368 91.0943 455.368 91.267H463.368C463.368 91.06 463.367 90.8532 463.364 90.6466L455.365 90.7504ZM455.368 89.8764C455.368 90.1389 455.367 90.4009 455.365 90.6626L463.365 90.7344C463.367 90.4486 463.368 90.1626 463.368 89.8764H455.368ZM369.492 4C416.92 4 455.368 42.4482 455.368 89.8764H463.368C463.368 38.0299 421.338 -4 369.492 -4V4ZM362.834 4H369.492V-4H362.834V4Z" fill="black" mask="url(#path-1-inside-1_64_82)"/>
<path fill-rule="evenodd" clip-rule="evenodd" d="M406.697 84.924C406.846 85.023 406.992 85.1279 407.135 85.2387C409.002 86.6864 410.588 89.3239 410.434 94.0915C410.408 94.9195 411.057 95.6123 411.885 95.639C412.713 95.6658 413.406 95.0162 413.433 94.1882C413.612 88.6366 411.73 85.0051 408.972 82.8675C406.288 80.7865 402.987 80.2894 400.555 80.5248C400.193 80.5598 399.874 80.7201 399.637 80.9586C397.135 81.6129 395.29 83.8883 395.29 86.5947C395.29 89.812 397.898 92.4201 401.115 92.4201C404.332 92.4201 406.94 89.812 406.94 86.5947C406.94 86.014 406.855 85.4532 406.697 84.924Z" fill="black"/>
<path fill-rule="evenodd" clip-rule="evenodd" d="M337.626 73.2731C337.774 73.3722 337.92 73.477 338.063 73.5878C339.931 75.0355 341.516 77.673 341.363 82.4406C341.336 83.2686 341.986 83.9615 342.814 83.9882C343.642 84.0149 344.334 83.3653 344.361 82.5373C344.54 76.9858 342.659 73.3542 339.901 71.2167C337.216 69.1356 333.915 68.6385 331.483 68.8739C331.122 68.9089 330.803 69.0692 330.565 69.3077C328.064 69.962 326.218 72.2374 326.218 74.9438C326.218 78.1611 328.826 80.7692 332.043 80.7692C335.261 80.7692 337.869 78.1611 337.869 74.9438C337.869 74.3632 337.784 73.8023 337.626 73.2731Z" fill="black"/>
<path d="M404.86 66.1592C406.386 66.1592 409.936 67.0746 411.934 70.7362" stroke="black" stroke-width="3" stroke-linecap="round"/>
<path d="M326.218 56.0142C327.24 54.8816 330.299 52.8592 334.355 53.83" stroke="black" stroke-width="3" stroke-linecap="round"/>
<ellipse cx="419.423" cy="104.44" rx="10.8185" ry="8.73799" fill="#E7A3BA"/>
<ellipse cx="312.071" cy="83.635" rx="10.8185" ry="8.73799" fill="#E7A3BA"/>
<path d="M349.103 87.7959C353.958 94.176 367.994 104.356 385.304 94.0373" stroke="black" stroke-width="3" stroke-linecap="round"/>
<path d="M376.611 110.265C370.952 109.932 370.092 102.914 370.37 99.4467L380.772 97.3662C381.743 101.805 382.27 110.598 376.611 110.265Z" fill="#E7A3BA"/>
<path d="M376.566 98.1982V105.272" stroke="black" stroke-width="3" stroke-linecap="round"/>
<path d="M376.566 110.265C370.907 109.932 370.047 102.914 370.324 99.4467L380.726 97.3662C381.697 101.805 382.224 110.598 376.566 110.265Z" stroke="black" stroke-width="3" stroke-linecap="round"/>
<path d="M240.808 127.926L361.303 254.008C384.705 278.495 372.823 319.132 339.916 327.156L170.479 368.466C137.571 376.49 108.319 345.881 117.824 313.371L166.767 145.979C176.272 113.469 217.406 103.44 240.808 127.926Z" fill="#DF6248" stroke="black" stroke-width="4"/>
<ellipse cx="273.348" cy="204.721" rx="9.90204" ry="6.65751" transform="rotate(-22.8522 273.348 204.721)" fill="#E7A3BA"/>
<ellipse cx="172.504" cy="228.25" rx="9.90204" ry="6.65751" transform="rotate(-11.871 172.504 228.25)" fill="#E7A3BA"/>
<path d="M209.296 208.879C213.04 214.289 221.612 221.362 225.939 206.383" stroke="black" stroke-width="3" stroke-linecap="round"/>
<path d="M258.811 196.397C253.402 183.082 242.999 182.665 244.247 198.477" stroke="black" stroke-width="3" stroke-linecap="round"/>
<path d="M191.09 212.945C185.681 199.63 175.279 199.214 176.527 215.026" stroke="black" stroke-width="3" stroke-linecap="round"/>
<path d="M170.599 194.316C171.015 193.345 173.095 191.071 178.088 189.739" stroke="black" stroke-width="3" stroke-linecap="round"/>
<path d="M245.496 175.859C246.423 175.354 249.465 174.854 254.212 176.896" stroke="black" stroke-width="3" stroke-linecap="round"/>
<circle cx="406.108" cy="314.568" r="108.349" fill="#E58F90" stroke="black" stroke-width="3"/>
<ellipse cx="343.694" cy="275.038" rx="10.8185" ry="8.73799" fill="#E7A3BA"/>
<ellipse cx="455.207" cy="264.22" rx="10.8185" ry="8.73799" fill="#E7A3BA"/>
<path fill-rule="evenodd" clip-rule="evenodd" d="M436.067 260.475C440.663 260.475 444.389 256.749 444.389 252.153C444.389 247.557 440.663 243.832 436.067 243.832C431.471 243.832 427.745 247.557 427.745 252.153C427.745 256.749 431.471 260.475 436.067 260.475ZM437.732 251.321C438.651 251.321 439.396 250.203 439.396 248.825C439.396 247.446 438.651 246.328 437.732 246.328C436.812 246.328 436.067 247.446 436.067 248.825C436.067 250.203 436.812 251.321 437.732 251.321Z" fill="#1B1414"/>
<path fill-rule="evenodd" clip-rule="evenodd" d="M360.338 266.301C364.934 266.301 368.66 262.575 368.66 257.979C368.66 253.383 364.934 249.657 360.338 249.657C355.742 249.657 352.016 253.383 352.016 257.979C352.016 262.575 355.742 266.301 360.338 266.301ZM362.002 257.146C362.921 257.146 363.667 256.029 363.667 254.65C363.667 253.271 362.921 252.153 362.002 252.153C361.083 252.153 360.338 253.271 360.338 254.65C360.338 256.029 361.083 257.146 362.002 257.146Z" fill="#1B1414"/>
<path d="M394.458 267.549C398.48 268.103 407.689 267.549 412.35 260.891" stroke="black" stroke-width="3" stroke-linecap="round"/>
<path d="M409.021 257.562C411.101 259.088 415.346 262.389 415.678 263.388" stroke="black" stroke-width="3" stroke-linecap="round"/>
</svg>
