<svg width="433" height="433" viewBox="0 0 433 433" fill="none" xmlns="http://www.w3.org/2000/svg">
<path d="M227.663 101.42L331.967 210.56C355.369 235.047 343.488 275.685 310.58 283.708L163.91 319.468C131.003 327.491 101.751 296.882 111.256 264.372L153.622 119.472C163.127 86.9621 204.262 76.9332 227.663 101.42Z" fill="#DF6248" stroke="black" stroke-width="4"/>
<ellipse cx="254.155" cy="168.682" rx="9.20678" ry="6.19006" transform="rotate(-22.8522 254.155 168.682)" fill="#E7A3BA"/>
<ellipse cx="160.392" cy="190.558" rx="9.20678" ry="6.19006" transform="rotate(-11.871 160.392 190.558)" fill="#E7A3BA"/>
<path d="M194.6 172.548C198.082 177.577 206.052 184.154 210.075 170.227" stroke="black" stroke-width="3" stroke-linecap="round"/>
<path d="M240.639 160.942C235.609 148.561 225.937 148.175 227.098 162.876" stroke="black" stroke-width="3" stroke-linecap="round"/>
<path d="M177.673 176.328C172.644 163.948 162.972 163.561 164.132 178.263" stroke="black" stroke-width="3" stroke-linecap="round"/>
<path d="M158.62 159.007C159.007 158.104 160.942 155.989 165.584 154.751" stroke="black" stroke-width="3" stroke-linecap="round"/>
<path d="M228.258 141.846C229.121 141.376 231.949 140.911 236.362 142.81" stroke="black" stroke-width="3" stroke-linecap="round"/>
</svg>
