<svg width="526" height="834" viewBox="0 0 526 834" fill="none" xmlns="http://www.w3.org/2000/svg">
<mask id="mask0_90_8" style="mask-type:alpha" maskUnits="userSpaceOnUse" x="0" y="0" width="522" height="834">
<rect width="522" height="834" fill="#D9D9D9"/>
</mask>
<g mask="url(#mask0_90_8)">
<rect x="-7.26905" y="223.483" width="239.699" height="842.453" rx="119.85" transform="rotate(-47.1626 -7.26905 223.483)" fill="#F4D941" stroke="black" stroke-width="5.59609"/>
<path d="M184.476 153.776C181.305 152.881 178.641 157.188 177.704 159.453C177.716 163.413 182.248 165.662 183.379 165.659C184.511 165.656 189.026 162.248 189.584 159.418C190.141 156.588 188.439 154.896 184.476 153.776Z" fill="black"/>
<path d="M104.314 210.138C101.144 209.243 98.4786 213.55 97.5425 215.815C97.5541 219.775 102.086 222.024 103.218 222.021C104.349 222.018 108.864 218.61 109.422 215.78C109.979 212.95 108.277 211.258 104.314 210.138Z" fill="black"/>
<path d="M164.778 178.449C159.795 176.654 158.194 183.749 158.017 187.52C156.71 192.05 151.72 200.889 142.214 200.012C130.332 198.915 131.475 202.872 131.481 205.134C131.487 206.945 134.889 209.65 136.589 210.776C139.985 211.521 148.699 212.098 156.381 208.455C164.064 204.812 167.847 195.977 168.778 192.014C169.521 188.241 169.762 180.245 164.778 178.449Z" stroke="black" stroke-width="3.39409"/>
<path d="M157.454 188.653L167.653 194.279" stroke="black" stroke-width="3.39409"/>
<path d="M151.818 195.458L159.201 205.618" stroke="black" stroke-width="3.39409"/>
<path d="M145.608 200.001L147.903 210.743" stroke="black" stroke-width="3.39409"/>
<path d="M170.296 140.808C171.612 139.484 174.81 136.834 177.072 136.828" stroke="black" stroke-width="3.39409" stroke-linecap="round"/>
<path d="M86.187 201.583C87.5031 200.259 90.7009 197.61 92.9636 197.603" stroke="black" stroke-width="3.39409" stroke-linecap="round"/>
<path d="M211.05 149.173C205.173 151.453 202.219 159.947 201.476 163.909C201.481 165.606 202.397 169.111 206.018 169.553C210.545 170.105 208.286 171.243 220.716 166.115C230.66 162.013 229.733 154.587 228.027 151.386C224.816 149.699 216.926 146.893 211.05 149.173Z" fill="#E7A3BA"/>
<path d="M89.1227 238.054C83.2463 240.334 80.2919 248.828 79.5493 252.79C79.5543 254.487 80.4697 257.992 84.0914 258.434C88.6185 258.986 86.3591 260.124 98.7891 254.996C108.733 250.894 107.806 243.468 106.1 240.267C102.889 238.58 94.9991 235.774 89.1227 238.054Z" fill="#E7A3BA"/>
</g>
</svg>
