<svg width="1093" height="1094" viewBox="0 0 1093 1094" fill="none" xmlns="http://www.w3.org/2000/svg">
<rect x="418.655" y="128.008" width="239.699" height="842.453" rx="119.85" transform="rotate(-1.03569 418.655 128.008)" fill="#F4D941" stroke="black" stroke-width="5.59609"/>
<path d="M601.796 217.921C600.244 215.015 595.293 216.079 593.011 216.974C590.164 219.727 591.684 224.553 592.47 225.366C593.257 226.18 598.842 227.073 601.269 225.514C603.695 223.954 603.735 221.554 601.796 217.921Z" fill="black"/>
<path d="M505.609 199.197C504.057 196.291 499.105 197.355 496.823 198.25C493.977 201.003 495.496 205.829 496.283 206.642C497.069 207.455 502.655 208.349 505.082 206.789C507.508 205.229 507.548 202.83 505.609 199.197Z" fill="black"/>
<path d="M570.358 220.822C568.199 215.985 561.975 219.748 559.133 222.234C554.962 224.431 545.132 226.961 539.176 219.5C531.731 210.174 529.671 213.74 528.045 215.313C526.743 216.572 527.151 220.899 527.517 222.905C529.335 225.869 534.957 232.551 542.908 235.565C550.858 238.578 559.85 235.181 563.352 233.106C566.587 231.027 572.517 225.659 570.358 220.822Z" stroke="black" stroke-width="3.39409"/>
<path d="M557.927 222.614L560.939 233.866" stroke="black" stroke-width="3.39409"/>
<path d="M549.115 223.267L546.907 235.631" stroke="black" stroke-width="3.39409"/>
<path d="M541.536 221.939L535.383 231.038" stroke="black" stroke-width="3.39409"/>
<path d="M601.317 198.711C603.184 198.742 607.31 199.211 608.883 200.838" stroke="black" stroke-width="3.39409" stroke-linecap="round"/>
<path d="M499.213 180.2C501.079 180.231 505.205 180.701 506.778 182.327" stroke="black" stroke-width="3.39409" stroke-linecap="round"/>
<path d="M623.532 233.887C617.815 231.231 609.645 234.989 606.274 237.199C605.054 238.379 603.162 241.468 605.353 244.385C608.093 248.031 605.707 247.191 618.018 252.598C627.867 256.923 632.578 251.108 633.702 247.66C632.694 244.175 629.248 236.543 623.532 233.887Z" fill="#E7A3BA"/>
<path d="M474.956 207.593C469.24 204.937 461.069 208.695 457.698 210.905C456.478 212.085 454.587 215.174 456.778 218.091C459.517 221.737 457.131 220.897 469.442 226.304C479.291 230.629 484.003 224.814 485.127 221.365C484.119 217.881 480.672 210.249 474.956 207.593Z" fill="#E7A3BA"/>
</svg>
